<svg width="166" height="166" viewBox="0 0 166 166" fill="none" xmlns="http://www.w3.org/2000/svg">
    <rect width="166" height="166" rx="34" fill="#111827"/>
    <path d="M83 19L142 52V114L83 147L24 114V52L83 19ZM83 37L40 61V105L83 129L126 105V61L83 37Z" fill="#38BDF8"/>
    <path d="M83 52L117 114H99L94 104H72L67 114H49L83 52ZM83 73L76 89H90L83 73Z" fill="#F8FAFC"/>
    <path d="M82 19H84L92 34H74L82 19ZM129 103L142 110L141 112L123 113L129 103ZM37 103L43 113L25 112L24 110L37 103Z" fill="#22D3EE"/>
</svg>
